:SAMPLES-PER-SECOND 30
:FULLY-SPECIFIED
:DEGREES
35
root  -5.82806 39.1812 11.7481 -178.93 11.2407 177.881
RightUpLeg  -11.5445 -10.887 -12.5125
RightLeg  11.6361 -14.6064 -3.67533
RightFoot  4.09907 -1.77679 13.2607
RightToes  -5.8209e-011 0 -3.6325e-017
Spine  8.53631 -0.405555 -6.78253
Spine1  26.5954 -2.67544 3.69817
HEad  -19.3382 11.7271 -5.39852
LeftShoulder1  2.18396 -6.66657 -14.6061
LeftArm  18.1577 2.88068 -54.9637
LeftForeArm  57.206 -78.1461 -58.813
LeftHand  -1.70863 -2.86872 23.9705
RightShoulder  0.948048 0.987534 14.2965
RightArm  -2.87675 -13.4955 55.3216
RightForeArm  135.097 74.5073 139.157
RightHand  -0.855188 3.50452 -11.3811
LeftUpLeg  -10.0611 -0.507562 4.96527
LeftLeg  19.0584 6.85825 2.95785
LeftFoot  -8.82312 0.23901 -8.46129
LeftToes  6.82088e-011 -2.45093e-011 5.71991e-013
36
root  -5.86225 39.1756 11.746 -178.855 11.2891 177.865
RightUpLeg  -11.5926 -11.0751 -12.6079
RightLeg  11.5334 -14.414 -3.51246
RightFoot  4.15473 -1.79622 13.3568
RightToes  -5.8209e-011 0 -3.6325e-017
Spine  8.68309 -0.417139 -6.86936
Spine1  26.2787 -2.76363 3.85442
HEad  -19.256 11.8555 -5.45607
LeftShoulder1  2.15778 -6.4606 -14.8041
LeftArm  17.2977 2.95252 -55.0453
LeftForeArm  58.2148 -78.3236 -60.7546
LeftHand  -1.63217 -2.53819 23.854
RightShoulder  0.933965 0.971974 14.0302
RightArm  -3.07569 -13.5795 55.5553
RightForeArm  136.266 74.2308 140.112
RightHand  -0.86323 3.57991 -11.3933
LeftUpLeg  -10.1794 -0.725416 4.88313
LeftLeg  19.1745 7.07842 3.05821
LeftFoot  -9.03011 0.226777 -8.55438
LeftToes  6.82088e-011 -2.45093e-011 5.71991e-013
37
root  -5.92108 39.149 11.7283 -178.768 11.4105 177.956
RightUpLeg  -11.7213 -11.1359 -12.6213
RightLeg  11.5565 -14.2411 -3.44601
RightFoot  4.14505 -1.80148 13.4027
RightToes  -5.8209e-011 0 -3.6325e-017
Spine  8.69957 -0.452836 -6.65596
Spine1  26.1341 -2.75901 3.81234
HEad  -19.202 11.9507 -5.46073
LeftShoulder1  2.11249 -6.22597 -14.8657
LeftArm  16.6379 3.05919 -55.3509
LeftForeArm  58.6545 -78.4429 -62.5018
LeftHand  -1.58099 -2.18268 24.1723
RightShoulder  0.91912 0.957672 13.7355
RightArm  -3.08637 -13.7425 55.7607
RightForeArm  136.78 73.9765 140.857
RightHand  -0.870518 3.58364 -11.4823
LeftUpLeg  -10.4329 -1.12854 4.85905
LeftLeg  19.6964 7.47421 3.2882
LeftFoot  -9.56745 0.192451 -8.72627
LeftToes  6.82088e-011 -2.45093e-011 5.71991e-013
38
root  -6.01661 39.0961 11.6981 -178.73 11.6755 178.148
RightUpLeg  -12.0189 -11.026 -12.5383
RightLeg  11.988 -13.8557 -3.53123
RightFoot  3.96907 -1.80325 13.5612
RightToes  -5.8209e-011 0 -3.6325e-017
Spine  8.69626 -0.533909 -6.16244
Spine1  26.1689 -2.65156 3.4556
HEad  -19.2777 12.1065 -5.46736
LeftShoulder1  2.07072 -6.04807 -14.8296
LeftArm  16.2565 3.29609 -55.7917
LeftForeArm  58.6612 -78.5108 -63.894
LeftHand  -1.55892 -1.89609 24.7455
RightShoulder  0.899018 0.865756 13.7087
RightArm  -2.76762 -13.7308 55.6664
RightForeArm  136.7 73.8588 141.137
RightHand  -0.83818 3.47666 -11.193
LeftUpLeg  -10.7939 -1.4699 4.87954
LeftLeg  20.6805 7.91075 3.61779
LeftFoot  -10.357 0.138384 -8.88968
LeftToes  6.82088e-011 -2.45093e-011 5.71991e-013
39
root  -6.15453 38.9978 11.6611 -178.777 12.2991 178.169
RightUpLeg  -12.8436 -10.7861 -12.6452
RightLeg  13.3934 -13.1992 -3.85757
RightFoot  3.40451 -1.79449 13.9864
RightToes  -5.8209e-011 0 -3.6325e-017
Spine  8.98288 -0.571568 -5.82984
Spine1  25.9212 -2.42328 2.84555
HEad  -19.4545 12.3763 -5.50414
LeftShoulder1  2.0379 -5.91192 -14.7909
LeftArm  16.0762 3.82399 -56.3923
LeftForeArm  58.3035 -78.5288 -64.712
LeftHand  -1.51701 -1.62242 25.0048
RightShoulder  0.885327 0.763098 13.9027
RightArm  -2.16205 -13.747 55.3332
RightForeArm  136.552 73.9018 141.003
RightHand  -0.799921 3.45618 -10.7214
LeftUpLeg  -11.2604 -1.39553 4.6585
LeftLeg  22.1089 8.31114 4.02958
LeftFoot  -11.2693 0.0730253 -8.93462
LeftToes  6.82088e-011 -2.45093e-011 5.71991e-013
40
root  -6.31966 38.8074 11.6169 -179.029 13.4008 177.679
RightUpLeg  -14.4696 -10.2384 -13.403
RightLeg  16.2764 -12.4696 -4.39126
RightFoot  2.20616 -1.74252 14.7296
RightToes  -5.8209e-011 0 -3.6325e-017
Spine  9.63065 -0.458784 -6.182
Spine1  25.2888 -2.10893 2.20563
HEad  -19.8058 12.7362 -5.65886
LeftShoulder1  1.99933 -5.74238 -14.7684
LeftArm  16.0666 4.56227 -57.1303
LeftForeArm  58.3519 -78.5687 -65.6365
LeftHand  -1.42688 -1.2981 24.6635
RightShoulder  0.879679 0.722336 13.9772
RightArm  -1.54846 -14.1137 55.2034
RightForeArm  137.127 73.8931 141.128
RightHand  -0.795777 3.64795 -10.4527
LeftUpLeg  -11.8723 -0.62713 3.87593
LeftLeg  24.18 8.50883 4.49311
LeftFoot  -12.406 -0.00659768 -8.71203
LeftToes  6.82088e-011 -2.45093e-011 5.71991e-013
41
root  -6.47561 38.4986 11.5602 -179.737 14.6831 176.612
RightUpLeg  -16.5992 -9.57986 -14.9229
RightLeg  20.5837 -11.2708 -4.82568
RightFoot  0.370206 -1.61717 15.708
RightToes  -5.8209e-011 0 -3.6325e-017
Spine  10.2912 -0.238281 -7.33222
Spine1  25.0199 -1.84751 1.69268
HEad  -20.4643 13.1232 -6.13036
LeftShoulder1  1.97404 -5.57919 -14.8892
LeftArm  16.3119 4.93556 -57.631
LeftForeArm  58.7792 -78.632 -66.77
LeftHand  -1.32693 -1.00452 24.0093
RightShoulder  0.875592 0.716475 13.9024
RightArm  -1.19571 -14.6655 55.4946
RightForeArm  138.401 73.6988 141.829
RightHand  -0.805179 3.87501 -10.3276
LeftUpLeg  -12.4777 0.84861 2.55293
LeftLeg  26.9401 8.18058 4.83715
LeftFoot  -13.8936 -0.0985456 -8.16626
LeftToes  6.82088e-011 -2.45093e-011 5.71991e-013
42
root  -6.60699 38.1451 11.4867 179.071 15.6374 175.388
RightUpLeg  -18.3674 -9.51329 -16.5806
RightLeg  25.1594 -9.21756 -4.90849
RightFoot  -1.46502 -1.44693 16.5154
RightToes  -5.8209e-011 0 -3.6325e-017
Spine  10.6418 -0.0889205 -8.56943
Spine1  25.7818 -1.7635 1.33425
HEad  -21.1685 13.4477 -6.95311
LeftShoulder1  2.01673 -5.58467 -15.3867
LeftArm  16.7993 4.35034 -57.5369
LeftForeArm  57.2698 -78.5242 -65.8829
LeftHand  -1.27397 -0.871872 23.5519
RightShoulder  0.884531 0.735639 14.0311
RightArm  -1.1144 -15.0113 55.9468
RightForeArm  139.179 73.5832 142.242
RightHand  -0.805811 3.9633 -10.2435
LeftUpLeg  -12.7121 2.59417 1.19245
LeftLeg  29.7604 7.34041 4.87339
LeftFoot  -15.4678 -0.17779 -7.49447
LeftToes  6.82088e-011 -2.45093e-011 5.71991e-013
43
root  -6.69865 37.8905 11.3938 177.785 16.0815 174.47
RightUpLeg  -19.1128 -9.33144 -17.9544
RightLeg  28.547 -8.10199 -4.98428
RightFoot  -2.45469 -1.32783 16.7559
RightToes  -5.8209e-011 0 -3.6325e-017
Spine  10.7168 -0.109647 -9.22676
Spine1  27.1106 -1.82641 1.05833
HEad  -21.3097 13.6252 -7.79262
LeftShoulder1  2.13481 -5.81106 -16.1825
LeftArm  17.1872 3.05144 -57.2004
LeftForeArm  52.4947 -78.0638 -61.421
LeftHand  -1.26465 -0.866333 23.4036
RightShoulder  0.921781 0.833264 14.4588
RightArm  -1.06298 -15.2153 56.3368
RightForeArm  138.709 73.9211 141.337
RightHand  -0.818335 4.01287 -10.3457
LeftUpLeg  -12.3331 3.95987 0.258616
LeftLeg  31.615 6.50873 4.67185
LeftFoot  -16.5741 -0.223222 -7.04121
LeftToes  6.82088e-011 -2.45093e-011 5.71991e-013
44
root  -6.70156 37.8125 11.2824 176.909 16.2716 173.993
RightUpLeg  -19.0865 -8.51523 -18.7138
RightLeg  30.1383 -8.59545 -5.58604
RightFoot  -2.57487 -1.3081 16.7233
RightToes  -5.8209e-011 0 -3.6325e-017
Spine  10.6714 -0.213291 -9.41264
Spine1  28.0161 -1.91629 0.833927
HEad  -20.7309 13.6758 -8.2983
LeftShoulder1  2.24009 -6.03723 -16.7959
LeftArm  17.0105 2.07312 -57.4295
LeftForeArm  47.98 -77.4814 -56.5799
LeftHand  -1.24651 -0.83303 23.1955
RightShoulder  0.968894 0.98775 14.809
RightArm  -0.725152 -15.7255 56.7722
RightForeArm  137.966 74.5922 139.469
RightHand  -0.841558 4.15917 -10.4775
LeftUpLeg  -11.5316 4.59345 -0.144255
LeftLeg  32.0432 6.17396 4.52003
LeftFoot  -16.9364 -0.240342 -6.98479
LeftToes  6.82088e-011 -2.45093e-011 5.71991e-013
45
root  -6.57144 37.9026 11.1638 176.743 16.4435 173.983
RightUpLeg  -18.8365 -7.20141 -18.5306
RightLeg  30.3327 -9.05981 -5.91436
RightFoot  -2.65037 -1.31993 17.0194
RightToes  -5.8209e-011 0 -3.6325e-017
Spine  10.5287 -0.298938 -9.40485
Spine1  28.1314 -2.01018 0.802708
HEad  -20.0185 13.7354 -8.50819
LeftShoulder1  2.23151 -5.96176 -16.8988
LeftArm  16.1945 2.1518 -58.4554
LeftForeArm  48.5697 -77.4908 -56.3662
LeftHand  -1.20336 -0.74675 22.7196
RightShoulder  0.988915 1.08502 14.7834
RightArm  0.0886815 -16.7755 57.2991
RightForeArm  138.663 75.0153 138.431
RightHand  -0.829064 4.312 -10.1725
LeftUpLeg  -10.6643 4.46577 -0.00346448
LeftLeg  31.1655 6.50517 4.59355
LeftFoot  -16.5482 -0.230592 -7.24512
LeftToes  6.82088e-011 -2.45093e-011 5.71991e-013
46
root  -6.30312 38.0984 11.0577 177.282 16.4336 174.364
RightUpLeg  -18.6458 -6.2973 -17.318
RightLeg  30.2295 -7.50352 -4.92792
RightFoot  -3.47767 -1.2393 17.5595
RightToes  -5.8209e-011 0 -3.6325e-017
Spine  10.2861 -0.400048 -9.31294
Spine1  27.6439 -2.19934 1.0662
HEad  -19.6873 13.9031 -8.60076
LeftShoulder1  2.10432 -5.52432 -16.6067
LeftArm  15.2655 3.07791 -59.6957
LeftForeArm  55.6542 -78.3029 -62.9126
LeftHand  -1.1808 -0.749124 22.2986
RightShoulder  0.977129 1.0783 14.5339
RightArm  1.29042 -18.2159 57.656
RightForeArm  140.957 74.8058 139.455
RightHand  -0.766557 4.32172 -9.41991
LeftUpLeg  -10.0109 3.63785 0.619971
LeftLeg  29.4208 7.35956 4.82708
LeftFoot  -15.536 -0.190265 -7.73297
LeftToes  6.82088e-011 -2.45093e-011 5.71991e-013
47
root  -5.92219 38.3295 10.9811 178.255 15.9472 174.819
RightUpLeg  -18.4144 -6.30837 -15.5409
RightLeg  30.4254 -4.93 -3.35566
RightFoot  -4.79667 -1.03298 17.348
RightToes  -5.8209e-011 0 -3.6325e-017
Spine  10.0604 -0.581013 -9.24761
Spine1  26.7081 -2.52115 1.49947
HEad  -19.5745 14.0905 -8.50571
LeftShoulder1  1.93176 -4.96011 -16.0769
LeftArm  14.7456 4.18049 -60.5425
LeftForeArm  66.884 -79.1646 -74.2749
LeftHand  -1.21205 -0.931815 22.2323
RightShoulder  0.95838 1.03124 14.3228
RightArm  2.5375 -19.7608 57.7146
RightForeArm  143.024 74.1249 141.615
RightHand  -0.696398 4.19176 -8.69657
LeftUpLeg  -9.64467 2.26422 1.43808
LeftLeg  27.2227 8.39576 5.01578
LeftFoot  -14.1251 -0.119841 -8.40992
LeftToes  6.82088e-011 -2.45093e-011 5.71991e-013
